<svg xmlns="http://www.w3.org/2000/svg" width="268.17" height="48.534" viewBox="0 0 268.17 48.534">
  <g id="Group_33" data-name="Group 33" transform="translate(-727.171 -2389.177)" opacity="0.913">
    <g id="Group_29" data-name="Group 29" transform="translate(727.171 2389.177)">
      <path id="Path_38" data-name="Path 38" d="M857.678,2420.849c-13.963,6.667-37.312,23.325-38.161,23.846-.05.031-.146.076-.208.106a25.044,25.044,0,0,0,3.142,1.745c11.578,5.08,28.515,8.176,31.81,7.108,8.754-2.836,18.533-21.12,21.85-30.029l.119-.324-.177.071c-2.133.862-10.166,4.143-18.3,7.959-7.937,3.721-15.023,7.251-15.023,7.251l-1.562.8,22.1-6.676s-5.926,13.933-13.637,15.485-21.43-3.875-21.43-3.875h0c1.177-.9,15.457-11.6,49.175-25.356l.126-.036c1.113-.455,2.632-3.083,2.677-4.574A69.744,69.744,0,0,0,857.678,2420.849Z" transform="translate(-789.705 -2406.262)" fill="#fff"/>
      <path id="Path_39" data-name="Path 39" d="M766.354,2413.482s7.529,11.9,10.161,15.472c4.089,5.547,11.448,8.758,11.448,8.758s-5.6-5.9-7.3-9.122c-.883-1.684.213-3.914,7.414-9.243,6.516-4.821,29.96-24.535,52.4-29.83,0,0-11.762-1.918-28.566,3.368-5.993,1.882-14.815,10.27-30.954,26.075C779.025,2420.51,769.854,2415.28,766.354,2413.482Z" transform="translate(-753.765 -2389.177)" fill="#fff"/>
      <path id="Path_40" data-name="Path 40" d="M727.171,2455.823s12.661,11.811,18.859,16.158c0,0-11.115-2.559-13.714-5.914S727.171,2455.823,727.171,2455.823Z" transform="translate(-727.171 -2434.41)" fill="#fff"/>
    </g>
    <g id="Group_30" data-name="Group 30" transform="translate(828.843 2419.409)">
      <path id="Path_41" data-name="Path 41" d="M1327.034,2497.173l-2.573-2.148h11.951v-4.163h-11.437v-7.574l15.859,0-1.854,2.072h-9.853v3.423h11.454v8.393Z" transform="translate(-1234.227 -2483.282)" fill="#fff"/>
      <path id="Path_42" data-name="Path 42" d="M1112.723,2497.186v-5.908h-7.406v5.908h-4.2V2483.3l14.745.006c.622,0,1.008.664,1.008,1.28l0,12.6Zm-.1-7.976v-3.23c0-.142-.029-.606-.374-.606h-6.867v3.836Z" transform="translate(-1082.645 -2483.294)" fill="#fff"/>
      <path id="Path_43" data-name="Path 43" d="M1216.037,2497.216v-13.93h15.588l-2.091,2.063h-9.345v3.773h10.534v2.205h-10.534v3.825h9.345l2.093,2.064Z" transform="translate(-1160.639 -2483.282)" fill="#fff"/>
      <path id="Path_44" data-name="Path 44" d="M1043.615,2497.164l0-13.892,16.387.006-2.188,2.166h-10v9.644h7.457v-5.5h4.148v7.571Z" transform="translate(-1043.615 -2483.272)" fill="#fff"/>
      <path id="Path_45" data-name="Path 45" d="M1161.369,2497.237v-7.973l4.13,2.8h0l4.132-2.8v7.973h4.17v-13.95l-8.3,5.58h0l-8.3-5.58v13.95Z" transform="translate(-1120.703 -2483.282)" fill="#fff"/>
      <path id="Path_46" data-name="Path 46" d="M1281.328,2491.239l3.745-.014v-6.659c0-.611-.382-1.28-1-1.28h-14.952v13.88h4.207v-11.828l7.3.007c.341,0,.37.461.37.6v2.715l-6.845,0,7.484,8.51h4.912Z" transform="translate(-1196.665 -2483.281)" fill="#fff"/>
    </g>
    <g id="Group_31" data-name="Group 31" transform="translate(828.843 2397.748)">
      <path id="Path_47" data-name="Path 47" d="M1212.312,2429.811v-13.945h4.121v11.9h7.443V2415.87h4.1v13.945Z" transform="translate(-1158.11 -2415.862)" fill="#fff"/>
      <path id="Path_48" data-name="Path 48" d="M1321.19,2429.825v-13.871h4.135v11.814h10.063l-1.877,2.057Z" transform="translate(-1232.006 -2415.922)" fill="#fff"/>
      <rect id="Rectangle_25" data-name="Rectangle 25" width="4.146" height="13.917" transform="translate(105.031 0.032)" fill="#fff"/>
      <path id="Path_49" data-name="Path 49" d="M1159.116,2429.715v-13.849l14.323,0a1.067,1.067,0,0,1,1,1.078v8.353h-11.154v4.416Zm11.206-6.477v-4.713c0-.607-.267-.607-.367-.607h-6.7v5.32Z" transform="translate(-1122.006 -2415.862)" fill="#fff"/>
      <path id="Path_50" data-name="Path 50" d="M1266.882,2415.854l12.986,0c.616,0,1.011.5,1.011,1.281v4.044h1.215l-.006,8.527-15.207,0Zm11.066,11.8v-4.434h-6.924v4.434Zm0-6.491v-2.649c0-.062-.008-.6-.365-.6h-6.558v3.25Z" transform="translate(-1195.147 -2415.854)" fill="#fff"/>
      <path id="Path_51" data-name="Path 51" d="M1105.025,2429.72v-13.854h15.5l-2.082,2.052h-9.3v3.752h10.478v2.192h-10.478v3.805h9.3l2.084,2.052Z" transform="translate(-1085.294 -2415.862)" fill="#fff"/>
      <path id="Path_52" data-name="Path 52" d="M1390.447,2429.749l0-13.84h15.548l-2.084,2.057h-9.292v9.731h11.395l-2.078,2.055Z" transform="translate(-1279.009 -2415.892)" fill="#fff"/>
      <path id="Path_53" data-name="Path 53" d="M1056.5,2423.072h-7l11.39,11.958v-4.689l-4.322-4.683h4.291v-8.507c0-.606.031-1.3-.827-1.3h-16.421v9.709l4.337,4.733v-12.371h7.915c.515,0,.636.205.636.712Z" transform="translate(-1043.615 -2415.854)" fill="#fff"/>
    </g>
    <g id="Group_32" data-name="Group 32" transform="translate(962.668 2397.766)">
      <path id="Path_54" data-name="Path 54" d="M1514.382,2429.819v-13.865h15.242l-1.891,2.036-9.214,0v2.965l10.616,0-1.727,2.056h-8.89v6.8Z" transform="translate(-1496.951 -2415.94)" fill="#fff"/>
      <path id="Path_55" data-name="Path 55" d="M1474.135,2415.91h-14.006v10.038l3.38,3.844h11.616V2417A1.039,1.039,0,0,0,1474.135,2415.91Zm-3.16,11.806h-4.4l-2.3-2.656v-7.075h6.7Z" transform="translate(-1460.129 -2415.91)" fill="#fff"/>
    </g>
  </g>
</svg>
